<svg xmlns="http://www.w3.org/2000/svg" viewBox="0 0 64 64"><defs><style>.cls-1,.cls-5{fill:#1a1a1a;}.cls-1{opacity:0;}.cls-2{fill:#fdaf18;}.cls-3{fill:#fec92b;}.cls-4{fill:#fff;}</style></defs><title>Melting face 64</title><g id="Layer_2" data-name="Layer 2"><g id="Rough"><rect class="cls-1" width="64" height="64"/><path class="cls-2" d="M59.48,46.93c-.22,2.08-2.55,3.22-4.2,4-1.88.9-3.85,1.63-5.65,2.69a55.44,55.44,0,0,0-5,3.81,9.92,9.92,0,0,1-5.49,2c-4.46.25-8.85-1.65-13-3-2.09-.68-4.21-1.29-6.35-1.77s-4.19-.71-6.3-1a14.71,14.71,0,0,1-5.78-1.86c-1.57-1-3.17-2.6-3.24-4.57s1.57-3.64,3.1-4.8c1.69-1.3,3.37-2.6,5-4a17.48,17.48,0,0,1,4.92-3.12,15.29,15.29,0,0,1,5.59-.72,87.68,87.68,0,0,1,12.69,1.59,127.77,127.77,0,0,1,13.4,3A26.9,26.9,0,0,1,55.8,42C57.48,43,59.72,44.7,59.48,46.93Z"/><path class="cls-3" d="M56.24,36.32h0c2.61-8.53,4.26-18.4-3.66-24.31C48.9,9.25,44.38,7.9,40,6.66h0C31.44,4,21.57,2.4,15.65,10.32c-2.75,3.69-4.1,8.21-5.34,12.62h0C7.69,31.47,6,41.34,14,47.26c3.69,2.75,8.22,4.1,12.62,5.34h0C35.11,55.22,45,56.87,50.9,49,53.66,45.26,55,40.73,56.24,36.32Z"/><path class="cls-2" d="M27.93,48A40.44,40.44,0,0,1,8.15,34.82C8.16,39.57,9.61,44,14,47.26c3.69,2.75,8.22,4.1,12.62,5.34h0C35.11,55.22,45,56.87,50.9,49c.37-.5.71-1,1-1.54A40.38,40.38,0,0,1,27.93,48Z"/><ellipse class="cls-2" cx="47.33" cy="40.52" rx="3.09" ry="4.84" transform="translate(-4.81 74.63) rotate(-73.76)"/><ellipse class="cls-2" cx="15.58" cy="31.27" rx="3.09" ry="4.84" transform="translate(-18.8 37.48) rotate(-73.76)"/><circle class="cls-4" cx="43.87" cy="32.15" r="6.77"/><circle class="cls-4" cx="22.98" cy="26.07" r="6.77"/><circle class="cls-5" cx="42.07" cy="31.63" r="3.93"/><circle class="cls-5" cx="24.79" cy="26.59" r="3.93"/><path class="cls-5" d="M23.75,36.82a29.61,29.61,0,0,0,3.18,2,18.47,18.47,0,0,0,6.79,1.94,34.78,34.78,0,0,0,3.73.1h0a1.16,1.16,0,0,1,.64,2.13,9.86,9.86,0,0,1-4.37,1.42,12,12,0,0,1-4.65-.46A11.53,11.53,0,0,1,22,38.24a1.14,1.14,0,0,1,.51-1.54,1.17,1.17,0,0,1,1.16.08Z"/><ellipse class="cls-2" cx="26.65" cy="12.98" rx="2.43" ry="4.06" transform="translate(8.73 36.59) rotate(-78.76)"/><ellipse class="cls-2" cx="47.8" cy="19.14" rx="2.43" ry="4.06" transform="translate(12.65 56.76) rotate(-68.76)"/></g></g></svg>