<svg xmlns="http://www.w3.org/2000/svg" viewBox="0 0 64 64"><defs><style>.cls-1,.cls-6{fill:#1a1a1a;}.cls-1{opacity:0;}.cls-2{fill:#fec92b;}.cls-3{fill:#fdaf18;}.cls-4{fill:#fc9504;}.cls-5{fill:#fff;}</style></defs><title>Pleading face 64</title><g id="Layer_2" data-name="Layer 2"><g id="Rough"><rect class="cls-1" width="64" height="64"/><path class="cls-2" d="M59.49,32h0c.15-10.25-1.21-21.67-11.85-25.65C42.69,4.49,37.26,4.46,32,4.51h0C21.75,4.36,10.33,5.72,6.35,16.36,4.49,21.31,4.46,26.74,4.51,32h0C4.36,42.25,5.72,53.67,16.36,57.65c4.95,1.86,10.38,1.89,15.64,1.84h0c10.25.15,21.67-1.21,25.65-11.85C59.51,42.69,59.54,37.26,59.49,32Z"/><path class="cls-3" d="M32,54A46.35,46.35,0,0,1,6,45.79C7.48,51,10.52,55.47,16.36,57.65c4.95,1.86,10.38,1.89,15.64,1.84h0c10.25.15,21.67-1.21,25.65-11.85.25-.66.46-1.34.65-2A46.44,46.44,0,0,1,32,54Z"/><ellipse class="cls-3" cx="51" cy="39.49" rx="5.56" ry="3.55"/><ellipse class="cls-3" cx="13" cy="39.49" rx="5.56" ry="3.55"/><path class="cls-4" d="M13.62,17a20.38,20.38,0,0,0,5.63-1.13,21.07,21.07,0,0,0,2.51-1.17c.83-.46,1.63-1,2.52-1.58l.07,0a1.16,1.16,0,0,1,1.62.33,1.19,1.19,0,0,1,.12,1,8.87,8.87,0,0,1-5.48,5.19,9.19,9.19,0,0,1-7.53-.45A1.16,1.16,0,0,1,13.55,17Z"/><path class="cls-4" d="M39.72,13.15a20.51,20.51,0,0,0,5,2.75,19.94,19.94,0,0,0,2.68.72c.93.18,1.88.29,3,.41h.08a1.17,1.17,0,0,1,1,1.3,1.15,1.15,0,0,1-.56.86,8.89,8.89,0,0,1-7.53.45,9.16,9.16,0,0,1-5.48-5.19,1.16,1.16,0,0,1,1.75-1.35Z"/><circle class="cls-5" cx="44.83" cy="29.37" r="9.96"/><circle class="cls-5" cx="19.17" cy="29.37" r="9.96"/><circle class="cls-6" cx="43.27" cy="29.37" r="6.81"/><circle class="cls-6" cx="20.73" cy="29.37" r="6.81"/><circle class="cls-5" cx="46.27" cy="24.37" r="2.16"/><circle class="cls-5" cx="23.73" cy="24.37" r="2.16"/><path class="cls-6" d="M37.76,50.31A20.43,20.43,0,0,0,32,49.43a18.92,18.92,0,0,0-2.8.25c-.95.15-1.9.38-3,.63l-.08,0A1.16,1.16,0,0,1,25,48.47a9,9,0,0,1,7-3,9.29,9.29,0,0,1,7,3,1.15,1.15,0,0,1-1.19,1.86Z"/></g></g></svg>