<svg xmlns="http://www.w3.org/2000/svg" viewBox="0 0 64 64"><defs><style>.cls-1{fill:#1a1a1a;opacity:0;}.cls-2{fill:#7b97a6;}.cls-3{fill:#d3dee3;}.cls-4{fill:#abc0c9;}.cls-5{fill:#1778ff;}.cls-6{fill:none;stroke:#fec92b;stroke-linecap:round;stroke-miterlimit:10;stroke-width:3px;stroke-dasharray:4 7;}.cls-7{fill:#0049c7;}.cls-8{fill:#e62e49;}.cls-9{fill:#ffa8a1;}</style></defs><title>Robot 64</title><g id="Layer_2" data-name="Layer 2"><g id="Rough"><rect class="cls-1" width="64" height="64"/><circle class="cls-2" cx="40.35" cy="42.55" r="6.73"/><circle class="cls-2" cx="23.64" cy="42.55" r="6.73"/><path class="cls-3" d="M22.64,41.61V53.85a2.11,2.11,0,0,0,1.82,2.09,54.07,54.07,0,0,0,7.54.48,54.18,54.18,0,0,0,7.54-.48,2.1,2.1,0,0,0,1.81-2.09V41.61h0A48.31,48.31,0,0,0,32,40.8a48.49,48.49,0,0,0-9.36.81Z"/><path class="cls-4" d="M32,47.92a57.44,57.44,0,0,1,9.35.73v-7h0A48.31,48.31,0,0,0,32,40.8a48.49,48.49,0,0,0-9.36.81h0v7A57.66,57.66,0,0,1,32,47.92Z"/><path class="cls-5" d="M50.38,19.16l-.92-7.43c-.23-2.32-8-4.15-17.46-4.15S14.77,9.41,14.54,11.73l-.92,7.43L4.74,27.45H59.26Z"/><path class="cls-6" d="M50.38,19.16C46.88,17.88,39.93,17,32,17s-14.88.86-18.38,2.14"/><path class="cls-7" d="M4.74,27.41C2.61,29.24,14.67,31,32,31s29.39-1.71,27.26-3.54C57.41,25.83,45.31,24.69,32,24.69S6.58,25.83,4.74,27.41Z"/><path class="cls-3" d="M11.13,30.19V42a2.11,2.11,0,0,0,1.94,2.11c5,.39,11.5.63,18.93.63s14-.24,18.93-.63A2.11,2.11,0,0,0,52.87,42V30.19a2.1,2.1,0,0,0-1.94-2.1C45.72,27.68,39,27.44,32,27.44s-13.72.24-18.93.65A2.1,2.1,0,0,0,11.13,30.19Z"/><circle class="cls-8" cx="43.37" cy="36.06" r="4.74"/><circle class="cls-8" cx="20.63" cy="36.06" r="4.74"/><ellipse class="cls-9" cx="44.37" cy="35.06" rx="1.69" ry="2.29" transform="translate(-11.8 41.64) rotate(-45)"/><ellipse class="cls-9" cx="21.63" cy="35.06" rx="1.69" ry="2.29" transform="translate(-18.46 25.56) rotate(-45)"/><rect class="cls-4" x="22.64" y="50.59" width="18.71" height="2.65"/></g></g></svg>